<svg id="Слой_1" data-name="Слой 1" xmlns="http://www.w3.org/2000/svg" viewBox="0 0 538.45 84.5"><defs><style>.cls-1{fill:#e67e42;}</style></defs><path class="cls-1" d="M109.54,227.28c-1.69,5.85-3.9,12.48-5.21,17.29h-49v-3.12c7.15-7,14.95-14.69,21.32-22.1,8.19-9.62,16-20,16-31.33,0-10.79-5.72-17-15.21-17-9,0-14.56,7-17.94,12.09l-3-2.73,7.41-10.53A23.59,23.59,0,0,1,81.71,162c12.35,0,22.11,8.45,22.11,22.49,0,11.05-4,18.85-16.39,31.46-5.59,5.85-13.78,13.78-19.37,19.11H92.89c7,0,9-.65,13.4-8.84Z" transform="translate(-55.32 -162.02)"/><path class="cls-1" d="M145.8,162c19.5,0,26.78,21.84,26.78,42,0,19-7.28,42.12-26.78,42.12-19.89,0-27.17-21.45-27.17-42C118.63,185.16,126,162,145.8,162Zm0,4.55c-12.09,0-15.08,19.11-15.08,37.31s3.64,37.7,15.08,37.7c11.7,0,14.82-19.37,14.82-37.57S157.37,166.57,145.8,166.57Z" transform="translate(-55.32 -162.02)"/><path class="cls-1" d="M189,244.57v-3.64c14.43-.91,15.21-1.56,15.21-11.31V179.7c0-6.63-.91-6.89-6.63-7.41l-6.37-.65v-3.25c8.58-1.43,17.16-3.51,23.79-6.37v67.6c0,9.88.78,10.4,15.34,11.31v3.64Z" transform="translate(-55.32 -162.02)"/><path class="cls-1" d="M272.81,162c12.48,0,21.19,8.71,21.19,19.24a16,16,0,0,1-3.64,10.53c-1.17,1.3-5.07,4.16-10.79,8.32,9,4.94,17.81,11.18,17.81,22.49,0,15.21-13.78,23.53-26.13,23.53-14.43,0-25.09-8.32-25.09-21.45a15.47,15.47,0,0,1,6-12.87,121.24,121.24,0,0,1,11.7-8.06c-8.45-4.94-14.43-11.18-14.43-20.41C249.41,172,258.64,162,272.81,162Zm0,79.69c8.71,0,14-5.72,14-15.21,0-10.4-8.71-15.47-19.24-20.54-7,4-10.92,10.14-10.92,17.81C256.69,235.73,264.23,241.71,272.81,241.71Zm-1.69-75.4c-7.8,0-11.83,6.11-11.83,13.39,0,9.49,6.37,13,16.51,18.33,5.07-3.9,8.58-8.45,8.58-16.12C284.38,171,277.88,166.31,271.12,166.31Z" transform="translate(-55.32 -162.02)"/><path class="cls-1" d="M339.5,219.09H309.59l.91-7.93h29.91Z" transform="translate(-55.32 -162.02)"/><path class="cls-1" d="M405.28,227.28c-1.69,5.85-3.9,12.48-5.2,17.29h-49v-3.12c7.15-7,14.95-14.69,21.32-22.1,8.19-9.62,16-20,16-31.33,0-10.79-5.73-17-15.22-17-9,0-14.56,7-17.94,12.09l-3-2.73,7.41-10.53a23.59,23.59,0,0,1,17.82-7.8c12.34,0,22.1,8.45,22.1,22.49,0,11.05-4,18.85-16.39,31.46-5.59,5.85-13.78,13.78-19.37,19.11h24.83c7,0,9-.65,13.4-8.84Z" transform="translate(-55.32 -162.02)"/><path class="cls-1" d="M441.54,162c19.5,0,26.78,21.84,26.78,42,0,19-7.28,42.12-26.78,42.12-19.89,0-27.17-21.45-27.17-42C414.37,185.16,421.78,162,441.54,162Zm0,4.55c-12.09,0-15.08,19.11-15.08,37.31s3.64,37.7,15.08,37.7c11.7,0,14.82-19.37,14.82-37.57S453.11,166.57,441.54,166.57Z" transform="translate(-55.32 -162.02)"/><path class="cls-1" d="M484.7,244.57v-3.64c14.43-.91,15.21-1.56,15.21-11.31V179.7c0-6.63-.91-6.89-6.63-7.41l-6.37-.65v-3.25c8.58-1.43,17.16-3.51,23.79-6.37v67.6c0,9.88.78,10.4,15.34,11.31v3.64Z" transform="translate(-55.32 -162.02)"/><path class="cls-1" d="M580.9,206.87l-8.71,4.42a16.84,16.84,0,0,1-7.8,2c-13.91,0-23.4-10.66-23.4-24.31,0-12.74,9.88-26.91,26.65-26.91s26.13,14.82,26.13,32.5a51.72,51.72,0,0,1-32.89,48.62,60.91,60.91,0,0,1-15.47,3.38l-1-3.77C562.83,239.37,576.61,227,580.9,206.87Zm-14.82-40.3c-10.14,0-13.65,9.62-13.65,18.72,0,11.44,6.37,20.93,17.29,20.93a19.92,19.92,0,0,0,11.7-3.77,65.38,65.38,0,0,0,.52-8.45C581.94,182.43,578.69,166.57,566.08,166.57Z" transform="translate(-55.32 -162.02)"/></svg>