<svg id="Слой_1" data-name="Слой 1" xmlns="http://www.w3.org/2000/svg" viewBox="0 0 533.77 84.11"><defs><style>.cls-1{fill:#e67e42;}</style></defs><path class="cls-1" d="M109.54,227.28c-1.69,5.85-3.9,12.48-5.21,17.29h-49v-3.12c7.15-7,14.95-14.69,21.32-22.1,8.19-9.62,16-20,16-31.33,0-10.79-5.72-17-15.21-17-9,0-14.56,7-17.94,12.09l-3-2.73,7.41-10.53A23.59,23.59,0,0,1,81.71,162c12.35,0,22.11,8.45,22.11,22.49,0,11.05-4,18.85-16.39,31.46-5.59,5.85-13.78,13.78-19.37,19.11H92.89c7,0,9-.65,13.4-8.84Z" transform="translate(-55.32 -162.02)"/><path class="cls-1" d="M145.8,162c19.5,0,26.78,21.84,26.78,42,0,19-7.28,42.12-26.78,42.12-19.89,0-27.17-21.45-27.17-42C118.63,185.16,126,162,145.8,162Zm0,4.55c-12.09,0-15.08,19.11-15.08,37.31s3.64,37.7,15.08,37.7c11.7,0,14.82-19.37,14.82-37.57S157.37,166.57,145.8,166.57Z" transform="translate(-55.32 -162.02)"/><path class="cls-1" d="M235.63,227.28c-1.69,5.85-3.9,12.48-5.2,17.29h-49v-3.12c7.15-7,15-14.69,21.32-22.1,8.19-9.62,16-20,16-31.33,0-10.79-5.72-17-15.21-17-9,0-14.56,7-17.94,12.09l-3-2.73L190,169.82a23.59,23.59,0,0,1,17.81-7.8c12.35,0,22.1,8.45,22.1,22.49,0,11.05-4,18.85-16.38,31.46-5.59,5.85-13.78,13.78-19.37,19.11H219c7,0,9-.65,13.39-8.84Z" transform="translate(-55.32 -162.02)"/><path class="cls-1" d="M271.9,162c19.5,0,26.78,21.84,26.78,42,0,19-7.28,42.12-26.78,42.12-19.89,0-27.17-21.45-27.17-42C244.73,185.16,252.14,162,271.9,162Zm0,4.55c-12.09,0-15.08,19.11-15.08,37.31s3.64,37.7,15.08,37.7c11.7,0,14.82-19.37,14.82-37.57S283.47,166.57,271.9,166.57Z" transform="translate(-55.32 -162.02)"/><path class="cls-1" d="M339.5,219.09H309.59l.91-7.93h29.91Z" transform="translate(-55.32 -162.02)"/><path class="cls-1" d="M405.28,227.28c-1.69,5.85-3.9,12.48-5.2,17.29h-49v-3.12c7.15-7,14.95-14.69,21.32-22.1,8.19-9.62,16-20,16-31.33,0-10.79-5.73-17-15.22-17-9,0-14.56,7-17.94,12.09l-3-2.73,7.41-10.53a23.59,23.59,0,0,1,17.82-7.8c12.34,0,22.1,8.45,22.1,22.49,0,11.05-4,18.85-16.39,31.46-5.59,5.85-13.78,13.78-19.37,19.11h24.83c7,0,9-.65,13.4-8.84Z" transform="translate(-55.32 -162.02)"/><path class="cls-1" d="M441.54,162c19.5,0,26.78,21.84,26.78,42,0,19-7.28,42.12-26.78,42.12-19.89,0-27.17-21.45-27.17-42C414.37,185.16,421.78,162,441.54,162Zm0,4.55c-12.09,0-15.08,19.11-15.08,37.31s3.64,37.7,15.08,37.7c11.7,0,14.82-19.37,14.82-37.57S453.11,166.57,441.54,166.57Z" transform="translate(-55.32 -162.02)"/><path class="cls-1" d="M531.37,227.28c-1.69,5.85-3.9,12.48-5.2,17.29h-49v-3.12c7.15-7,14.95-14.69,21.32-22.1,8.19-9.62,16-20,16-31.33,0-10.79-5.72-17-15.21-17-9,0-14.56,7-17.94,12.09l-3-2.73,7.41-10.53a23.59,23.59,0,0,1,17.81-7.8c12.35,0,22.1,8.45,22.1,22.49,0,11.05-4,18.85-16.38,31.46-5.59,5.85-13.78,13.78-19.37,19.11h24.83c7,0,9-.65,13.39-8.84Z" transform="translate(-55.32 -162.02)"/><path class="cls-1" d="M547.75,244.57v-3.64C562.18,240,563,239.37,563,229.62V179.7c0-6.63-.91-6.89-6.63-7.41l-6.37-.65v-3.25c8.58-1.43,17.16-3.51,23.79-6.37v67.6c0,9.88.78,10.4,15.34,11.31v3.64Z" transform="translate(-55.32 -162.02)"/></svg>