<?xml version="1.0" encoding="UTF-8" standalone="no"?>
<svg
   xmlns:dc="http://purl.org/dc/elements/1.1/"
   xmlns:cc="http://creativecommons.org/ns#"
   xmlns:rdf="http://www.w3.org/1999/02/22-rdf-syntax-ns#"
   xmlns:svg="http://www.w3.org/2000/svg"
   xmlns="http://www.w3.org/2000/svg"
   xmlns:sodipodi="http://sodipodi.sourceforge.net/DTD/sodipodi-0.dtd"
   xmlns:inkscape="http://www.inkscape.org/namespaces/inkscape"
   id="Слой_1"
   data-name="Слой 1"
   viewBox="0 0 383.09 238.34"
   version="1.1"
   sodipodi:docname="Logo2.svg"
   inkscape:version="1.0.1 (3bc2e813f5, 2020-09-07)">
  <metadata
     id="metadata127">
    <rdf:RDF>
      <cc:Work
         rdf:about="">
        <dc:format>image/svg+xml</dc:format>
        <dc:type
           rdf:resource="http://purl.org/dc/dcmitype/StillImage" />
      </cc:Work>
    </rdf:RDF>
  </metadata>
  <sodipodi:namedview
     pagecolor="#ffffff"
     bordercolor="#666666"
     borderopacity="1"
     objecttolerance="10"
     gridtolerance="10"
     guidetolerance="10"
     inkscape:pageopacity="0"
     inkscape:pageshadow="2"
     inkscape:window-width="1920"
     inkscape:window-height="1017"
     id="namedview125"
     showgrid="false"
     inkscape:zoom="3.3960688"
     inkscape:cx="191.545"
     inkscape:cy="119.17"
     inkscape:window-x="-8"
     inkscape:window-y="-8"
     inkscape:window-maximized="1"
     inkscape:current-layer="Слой_1" />
  <defs
     id="defs4">
    <style
       id="style2">.cls-1{fill:#293956;}.cls-2,.cls-4,.cls-5{fill:#e67e42;}.cls-3{fill:none;}.cls-3,.cls-4,.cls-5{stroke:#e67e42;stroke-miterlimit:10;}.cls-3,.cls-4{stroke-width:2px;}.cls-6{fill:#e57e42;}.cls-7{font-size:21px;fill:#fff;font-family:MyriadPro-Regular, Myriad Pro;letter-spacing:0.15em;}</style>
  </defs>
  <path
     class="cls-1"
     d="M148.78,103C164.51,82.57,190.11,69.3,219,69.3c-43.82,0-82.61,13.27-106.44,33.65Z"
     transform="translate(0 -13.03)"
     id="path6"
     style="fill:#002959;fill-opacity:1" />
  <path
     class="cls-1"
     d="M149.16,197.24H112.83c23.78,20.59,62.79,34,106.88,34h0C190.61,231.25,164.86,217.83,149.16,197.24Z"
     transform="translate(0 -13.03)"
     id="path8"
     style="fill:#002959;fill-opacity:1" />
  <path
     class="cls-1"
     d="M290.64,103C274.91,82.57,249.3,69.3,220.38,69.3,264.2,69.3,303,82.57,326.82,103Z"
     transform="translate(0 -13.03)"
     id="path10"
     style="fill:#002959;fill-opacity:1" />
  <path
     class="cls-1"
     d="M290.26,197.24h36.33c-23.79,20.59-62.79,34-106.88,34h0C248.81,231.25,274.56,217.83,290.26,197.24Z"
     transform="translate(0 -13.03)"
     id="path12"
     style="fill:#002959;fill-opacity:1" />
  <path
     class="cls-1"
     d="M287.73,102.58C272.45,83,248,70.25,220.28,70v32.58Z"
     transform="translate(0 -13.03)"
     id="path14"
     style="fill:#002959;fill-opacity:1" />
  <path
     class="cls-1"
     d="M220.28,197v32.94c27.85-.24,52.48-13.16,67.75-32.94Z"
     transform="translate(0 -13.03)"
     id="path16"
     style="fill:#002959;fill-opacity:1" />
  <path
     class="cls-1"
     d="M164.79,148.79v12.83H144.7V148l-9.46,2.58A76.37,76.37,0,0,0,149.85,195H219V163.54Z"
     transform="translate(0 -13.03)"
     id="path18"
     style="fill:#002959;fill-opacity:1" />
  <path
     class="cls-1"
     d="M144.7,121.93h20.09V138L219,126.63V104.79H150.22a76.94,76.94,0,0,0-13.81,32.06l8.29,1.74Z"
     transform="translate(0 -13.03)"
     id="path20"
     style="fill:#002959;fill-opacity:1" />
  <path
     class="cls-1"
     d="M219,102.62V70.09c-27.58.35-52,13.07-67.26,32.53Z"
     transform="translate(0 -13.03)"
     id="path22"
     style="fill:#002959;fill-opacity:1" />
  <path
     class="cls-1"
     d="M151.45,197c15.23,19.71,39.79,32.63,67.59,33V197Z"
     transform="translate(0 -13.03)"
     id="path24"
     style="fill:#002959;fill-opacity:1" />
  <ellipse
     class="cls-2"
     cx="154.74"
     cy="95.05"
     rx="1.25"
     ry="1.38"
     id="ellipse26" />
  <path
     class="cls-3"
     d="M213.11,250.56"
     transform="translate(0 -13.03)"
     id="path28" />
  <path
     class="cls-3"
     d="M270.28,247.28"
     transform="translate(0 -13.03)"
     id="path30" />
  <path
     class="cls-3"
     d="M220.4,229.94"
     transform="translate(0 -13.03)"
     id="path32" />
  <path
     class="cls-3"
     d="M325.92,20.62"
     transform="translate(0 -13.03)"
     id="path34" />
  <path
     class="cls-3"
     d="M383.09,17.34"
     transform="translate(0 -13.03)"
     id="path36" />
  <path
     class="cls-3"
     d="M333.21,0"
     transform="translate(0 -13.03)"
     id="path38" />
  <path
     class="cls-1"
     d="M134.39,136.47A77.58,77.58,0,0,1,148,104.84H111.11a73.59,73.59,0,0,0-17.5,23.08Z"
     transform="translate(0 -13.03)"
     id="path40"
     style="fill:#002959;fill-opacity:1" />
  <path
     class="cls-1"
     d="M90.1,162.82c3,11.86,10.13,22.87,20.5,32.43h37.09a77,77,0,0,1-14.56-44.14Z"
     transform="translate(0 -13.03)"
     id="path42"
     style="fill:#002959;fill-opacity:1" />
  <path
     class="cls-1"
     d="M293.44,111c-1.31-2.2-2.71-4.35-4.23-6.42H220.28v21.75Z"
     transform="translate(0 -13.03)"
     id="path44"
     style="fill:#002959;fill-opacity:1" />
  <path
     class="cls-1"
     d="M220.28,163.88V194.8h69.43A78.74,78.74,0,0,0,296,184.47Z"
     transform="translate(0 -13.03)"
     id="path46"
     style="fill:#002959;fill-opacity:1" />
  <path
     class="cls-1"
     d="M323.65,104.84H291.39c1.4,1.92,2.69,3.91,3.91,5.94Z"
     transform="translate(0 -13.03)"
     id="path48"
     style="fill:#002959;fill-opacity:1" />
  <path
     class="cls-1"
     d="M297.93,185.06a79.57,79.57,0,0,1-6.2,10.19h37.09c.5-.45,1-.92,1.45-1.39Z"
     transform="translate(0 -13.03)"
     id="path50"
     style="fill:#002959;fill-opacity:1" />
  <line
     class="cls-4"
     x1="137.87"
     y1="182.51"
     x2="171.15"
     y2="182.51"
     id="line52" />
  <path
     class="cls-2"
     d="M166.2,228.94c1,0,2,0,3,.12V195.54h-29.3v45h3.42C146.09,233.86,155.29,228.94,166.2,228.94Z"
     transform="translate(0 -13.03)"
     id="path54" />
  <rect
     class="cls-2"
     x="143.1"
     y="149.27"
     width="22.81"
     height="32.82"
     id="rect56" />
  <rect
     class="cls-5"
     x="142.04"
     y="149.27"
     width="25.14"
     height="0.18"
     id="rect58" />
  <rect
     class="cls-5"
     x="140.84"
     y="148.59"
     width="27.34"
     height="0.18"
     id="rect60" />
  <path
     class="cls-5"
     d="M154.74,109.32c-6.29,0-11.4,5.46-11.4,12.19h22.81C166.15,114.78,161,109.32,154.74,109.32Z"
     transform="translate(0 -13.03)"
     id="path62" />
  <line
     class="cls-4"
     x1="141.92"
     y1="108.9"
     x2="167.57"
     y2="108.9"
     id="line64" />
  <path
     class="cls-6"
     d="M176.3,138.15a4.79,4.79,0,0,1,2.87.73,2.84,2.84,0,0,1,1.12,2.41,3.52,3.52,0,0,1-3.74,3.49,2.48,2.48,0,0,1-.45,0l-1.18-.3v2.65c0,1.43.12,1.46,1.69,1.63v.48h-4.7v-.48c1.47-.15,1.53-.26,1.53-1.67v-6.74c0-1.52-.18-1.55-1.53-1.69v-.47Zm-1.38,5.69a3.18,3.18,0,0,0,1.24.22,2.67,2.67,0,0,0-.1-5.34,1.49,1.49,0,0,0-.95.21c-.14.12-.19.32-.19.78Z"
     transform="translate(0 -13.03)"
     id="path66" />
  <path
     class="cls-6"
     d="M189.24,149.2v-.48c1.1-.14,1.24-.31,1-.95s-.56-1.52-.92-2.59h-3.67c-.27.77-.53,1.43-.77,2.13-.37,1.1-.13,1.24,1.26,1.41v.48h-3.92v-.48c1.07-.14,1.34-.26,1.93-1.79l3.52-8.92.55-.1c1.07,2.91,2.24,6.12,3.31,9.06.54,1.48.7,1.61,1.9,1.75v.48Zm-1.7-9.07-1.64,4.36h3.18Z"
     transform="translate(0 -13.03)"
     id="path68" />
  <path
     class="cls-6"
     d="M205.49,146.49c-.1.44-.56,2.2-.73,2.71H196.5v-.48c1.58-.12,1.7-.27,1.7-1.67v-6.71c0-1.51-.19-1.6-1.47-1.72v-.47h5.21c1.59,0,2.26,0,2.46,0,0,.43.09,1.7.15,2.6l-.51.09a5.23,5.23,0,0,0-.51-1.29c-.27-.56-.66-.68-1.68-.68h-1.61c-.53,0-.56,0-.56.54v3.76h1.88c1.28,0,1.36-.26,1.57-1.41h.52v3.5h-.52c-.23-1.23-.36-1.4-1.58-1.4h-1.87v3.39c0,1.19.37,1.29,1.22,1.31h1.58c1,0,1.21-.16,1.58-.6a7.55,7.55,0,0,0,.92-1.56Z"
     transform="translate(0 -13.03)"
     id="path70" />
  <path
     class="cls-6"
     d="M226.84,144.55c-1.05.14-1.12.24-1.12,1.25v1.42a8.9,8.9,0,0,0,.1,1.62,17.16,17.16,0,0,1-3.86.61c-3.86,0-6.2-2.4-6.2-5.81,0-3.59,2.92-5.73,6.32-5.73a18,18,0,0,1,3.54.42c0,.63.11,1.67.25,2.74l-.51.1c-.41-1.44-.9-2.06-2-2.41a5.58,5.58,0,0,0-1.58-.22c-2.6,0-4.29,1.78-4.29,4.89,0,2.71,1.4,5.39,4.7,5.39a3.4,3.4,0,0,0,1.44-.29c.36-.2.58-.39.58-1.09v-1.39c0-1.24-.14-1.38-1.77-1.5v-.49h4.37Z"
     transform="translate(0 -13.03)"
     id="path72" />
  <path
     class="cls-6"
     d="M242.14,138.62c-1.07.07-1.46.34-1.5,1.12,0,.39,0,1.11,0,2.67v1.84c0,1.73-.2,3.06-1.19,4.1a4.19,4.19,0,0,1-3.13,1.08,4.57,4.57,0,0,1-2.78-.78c-1-.78-1.52-2-1.52-3.94v-4.34c0-1.53-.13-1.63-1.49-1.75v-.47H235v.47c-1.36.09-1.5.22-1.5,1.75v4.25c0,2.48,1.18,3.84,3.22,3.84,2.41,0,3.17-1.49,3.17-4.31v-1.74c0-1.56-.05-2.21-.08-2.67,0-.76-.44-1.05-1.7-1.12v-.47h4.08Zm-6.54-2.72a.89.89,0,0,1-.87.89.91.91,0,0,1,0-1.81A.89.89,0,0,1,235.6,135.9Zm3.39,0a.88.88,0,1,1-.88-.92A.89.89,0,0,1,239,135.9Z"
     transform="translate(0 -13.03)"
     id="path74" />
  <path
     class="cls-6"
     d="M254.91,149.2v-.48c1.39-.14,1.44-.24,1.42-2.06l0-6.93c-1.39,3.11-3.64,8-4.23,9.47h-.44c-.58-1.55-2.5-6.23-3.79-9.3-.29,5.95-.31,7.29-.31,7.61,0,1,.44,1.09,1.6,1.21v.48h-4v-.48c1-.1,1.39-.31,1.53-1.23.1-.74.12-1.35.56-7.56.07-.88-.1-1.17-1.6-1.31v-.47h3l3.76,8.61,4-8.61h3v.47c-1.46.17-1.65.33-1.61,1.51l.06,6.53c.07,1.82.12,1.91,1.62,2.06v.48Z"
     transform="translate(0 -13.03)"
     id="path76" />
  <path
     class="cls-6"
     d="M275.26,138.62c-1.09.12-1.45.29-1.5,1.07,0,.55-.05,1.26-.05,2.84v6.82h-.65l-7.27-8.89v4.25c0,1.53,0,2.29.08,2.78,0,.87.46,1.13,1.68,1.23v.48h-4.13v-.48c1.06-.09,1.47-.34,1.53-1.17a27.83,27.83,0,0,0,.09-2.86v-4.33a1.49,1.49,0,0,0-.34-1.13c-.32-.42-.68-.52-1.51-.61v-.47h2.55l7.2,8.55v-4.17c0-1.58,0-2.31-.08-2.82-.05-.76-.44-1-1.8-1.09v-.47h4.2Z"
     transform="translate(0 -13.03)"
     id="path78" />
  <path
     class="cls-6"
     d="M285,149.2v-.48c1.1-.14,1.24-.31,1-.95s-.56-1.52-.92-2.59h-3.67c-.27.77-.52,1.43-.76,2.13-.38,1.1-.14,1.24,1.26,1.41v.48H278v-.48c1.07-.14,1.34-.26,1.94-1.79l3.52-8.92.54-.1c1.07,2.91,2.24,6.12,3.31,9.06.55,1.48.7,1.61,1.91,1.75v.48Zm-1.7-9.07c-.54,1.47-1.12,3-1.63,4.36h3.18Z"
     transform="translate(0 -13.03)"
     id="path80" />
  <path
     class="cls-6"
     d="M298.75,149.2v-.48c1.1-.14,1.24-.31,1-.95s-.56-1.52-.92-2.59h-3.67c-.27.77-.52,1.43-.76,2.13-.38,1.1-.14,1.24,1.26,1.41v.48h-3.93v-.48c1.07-.14,1.34-.26,1.94-1.79l3.52-8.92.54-.1C298.8,140.82,300,144,301,147c.55,1.48.7,1.61,1.91,1.75v.48Zm-1.7-9.07c-.54,1.47-1.12,3-1.63,4.36h3.18Z"
     transform="translate(0 -13.03)"
     id="path82" />
  <path
     class="cls-6"
     d="M312.35,140.73c-.29-1.12-.77-2.23-2.36-2.23a1.7,1.7,0,0,0-1.79,1.86c0,1.17.75,1.76,2.16,2.49,2,1.06,2.92,1.84,2.92,3.46,0,1.78-1.54,3.14-3.74,3.14a7.14,7.14,0,0,1-2.6-.56,25.07,25.07,0,0,1-.46-2.55l.53-.14c.34,1.14,1.09,2.62,2.86,2.62a1.87,1.87,0,0,0,2-1.95c0-1.31-.7-1.84-2.19-2.66-1.79-1-2.79-1.78-2.79-3.36s1.26-2.94,3.5-2.94a10.69,10.69,0,0,1,2.24.32c.07.61.14,1.29.28,2.4Z"
     transform="translate(0 -13.03)"
     id="path84" />
  <path
     class="cls-6"
     d="M317.3,149.2v-.48c1.39-.15,1.53-.22,1.53-1.67v-6.74c0-1.47-.14-1.53-1.53-1.69v-.47h4.55v.47c-1.41.16-1.55.22-1.55,1.69v6.74c0,1.47.14,1.52,1.55,1.67v.48Z"
     transform="translate(0 -13.03)"
     id="path86" />
  <path
     class="cls-6"
     d="M337.52,138.62c-1.07.07-1.46.34-1.49,1.12,0,.39,0,1.11,0,2.67v1.84c0,1.73-.21,3.06-1.19,4.1a4.21,4.21,0,0,1-3.13,1.08,4.62,4.62,0,0,1-2.79-.78c-1-.78-1.51-2-1.51-3.94v-4.34c0-1.53-.14-1.63-1.5-1.75v-.47h4.48v.47c-1.37.09-1.5.22-1.5,1.75v4.25c0,2.48,1.17,3.84,3.21,3.84,2.42,0,3.18-1.49,3.18-4.31v-1.74c0-1.56-.05-2.21-.08-2.67-.06-.76-.45-1.05-1.7-1.12v-.47h4.07Z"
     transform="translate(0 -13.03)"
     id="path88" />
  <path
     class="cls-6"
     d="M350.29,149.2v-.48c1.4-.14,1.45-.24,1.43-2.06l0-6.93c-1.4,3.11-3.64,8-4.23,9.47h-.45c-.58-1.55-2.5-6.23-3.79-9.3-.29,5.95-.3,7.29-.3,7.61,0,1,.44,1.09,1.59,1.21v.48h-4v-.48c1-.1,1.39-.31,1.53-1.23.1-.74.11-1.35.56-7.56.06-.88-.11-1.17-1.6-1.31v-.47h3l3.75,8.61,4-8.61h3v.47c-1.47.17-1.65.33-1.62,1.51l.07,6.53c.07,1.82.12,1.91,1.61,2.06v.48Z"
     transform="translate(0 -13.03)"
     id="path90" />
  <polygon
     class="cls-2"
     points="355.63 88.34 198.61 120.4 355.63 120.4 355.63 88.34"
     id="polygon92" />
  <polygon
     class="cls-2"
     points="182.87 138.08 383.09 192.74 383.09 138.08 182.87 138.08"
     id="polygon94" />
  <text
     class="cls-7"
     transform="translate(321.22 158.09)"
     id="text96">1956</text>
  <path
     class="cls-1"
     d="M44.51,140.82A6.23,6.23,0,0,0,44,139.4c-.27-.45-.44-.57-1.38-.57h-1.7v8.27c0,1.33.14,1.52,1.75,1.62v.48H37.7v-.48c1.58-.1,1.71-.27,1.71-1.62v-8.27H37.87c-.94,0-1.21.1-1.5.61a8,8,0,0,0-.56,1.38H35.3c.1-1,.2-2.11.26-3.06H36c.25.4.44.39.91.39H43.6a.85.85,0,0,0,.86-.39h.41c0,.79.07,2,.15,3Z"
     transform="translate(0 -13.03)"
     id="path98"
     style="fill:#002959;fill-opacity:1" />
  <path
     class="cls-1"
     d="M53.76,149.2v-.48c1.11-.14,1.24-.31,1-.95s-.56-1.52-.91-2.59H50.18c-.28.77-.53,1.43-.77,2.13-.37,1.1-.14,1.24,1.26,1.41v.48H46.74v-.48c1.07-.14,1.34-.26,1.94-1.79L52.2,138l.54-.1C53.81,140.82,55,144,56.06,147c.54,1.48.69,1.61,1.9,1.75v.48Zm-1.7-9.07c-.54,1.47-1.12,3-1.63,4.36h3.18Z"
     transform="translate(0 -13.03)"
     id="path100"
     style="fill:#002959;fill-opacity:1" />
  <path
     class="cls-1"
     d="M69.72,146.37c-.1.53-.61,2.3-.78,2.83H61v-.48c1.55-.15,1.68-.24,1.68-1.68v-6.75c0-1.45-.17-1.53-1.53-1.67v-.47h4.56v.47c-1.36.14-1.55.21-1.55,1.67v6.92c0,1,.14,1.27,1.1,1.29l1.35,0c.86,0,1.12-.11,1.51-.53a5.72,5.72,0,0,0,1-1.75Z"
     transform="translate(0 -13.03)"
     id="path102"
     style="fill:#002959;fill-opacity:1" />
  <path
     class="cls-1"
     d="M81.93,146.37c-.1.53-.61,2.3-.78,2.83H73.24v-.48c1.55-.15,1.69-.24,1.69-1.68v-6.75c0-1.45-.17-1.53-1.53-1.67v-.47H78v.47c-1.36.14-1.54.21-1.54,1.67v6.92c0,1,.13,1.27,1.1,1.29l1.34,0c.87,0,1.13-.11,1.52-.53a5.7,5.7,0,0,0,1-1.75Z"
     transform="translate(0 -13.03)"
     id="path104"
     style="fill:#002959;fill-opacity:1" />
  <path
     class="cls-1"
     d="M85.6,149.2v-.48c1.4-.15,1.53-.22,1.53-1.67v-6.74c0-1.47-.13-1.53-1.53-1.69v-.47h4.56v.47c-1.41.16-1.55.22-1.55,1.69v6.74c0,1.47.14,1.52,1.55,1.67v.48Z"
     transform="translate(0 -13.03)"
     id="path106"
     style="fill:#002959;fill-opacity:1" />
  <path
     class="cls-1"
     d="M106.17,138.62c-1.09.12-1.44.29-1.49,1.07,0,.55-.06,1.26-.06,2.84v6.82H104l-7.28-8.89v4.25c0,1.53,0,2.29.09,2.78,0,.87.46,1.13,1.68,1.23v.48H94.34v-.48c1-.09,1.46-.34,1.53-1.17,0-.55.09-1.31.09-2.86v-4.33a1.53,1.53,0,0,0-.34-1.13c-.33-.42-.68-.52-1.52-.61v-.47h2.55l7.21,8.55v-4.17a26,26,0,0,0-.09-2.82c0-.76-.44-1-1.8-1.09v-.47h4.2Z"
     transform="translate(0 -13.03)"
     id="path108"
     style="fill:#002959;fill-opacity:1" />
  <path
     class="cls-1"
     d="M121.83,138.62c-1.09.12-1.45.29-1.5,1.07,0,.55,0,1.26,0,2.84v6.82h-.64l-7.28-8.89v4.25c0,1.53,0,2.29.09,2.78,0,.87.45,1.13,1.68,1.23v.48H110v-.48c1-.09,1.46-.34,1.53-1.17,0-.55.08-1.31.08-2.86v-4.33a1.49,1.49,0,0,0-.34-1.13c-.32-.42-.68-.52-1.51-.61v-.47h2.55l7.21,8.55v-4.17c0-1.58,0-2.31-.09-2.82-.05-.76-.44-1-1.8-1.09v-.47h4.2Z"
     transform="translate(0 -13.03)"
     id="path110"
     style="fill:#002959;fill-opacity:1" />
  <path
     class="cls-1"
     d="M131.55,149.2v-.48c1.11-.14,1.24-.31,1-.95s-.57-1.52-.92-2.59H128c-.28.77-.53,1.43-.77,2.13-.37,1.1-.13,1.24,1.26,1.41v.48h-3.93v-.48c1.07-.14,1.35-.26,1.94-1.79L130,138l.54-.1c1.07,2.91,2.25,6.12,3.32,9.06.54,1.48.69,1.61,1.9,1.75v.48Zm-1.7-9.07c-.54,1.47-1.12,3-1.63,4.36h3.18Z"
     transform="translate(0 -13.03)"
     id="path112"
     style="fill:#002959;fill-opacity:1" />
  <polygon
     class="cls-2"
     points="0 120.4 109.53 120.4 0 97.52 0 120.4"
     id="polygon114" />
  <polygon
     class="cls-2"
     points="21.32 138.08 21.32 149.57 126.49 138.08 21.32 138.08"
     id="polygon116" />
  <polygon
     class="cls-2"
     points="30.23 156.19 30.23 163.63 114.85 141 114.85 140.97 30.23 156.19"
     id="polygon118" />
  <path
     class="cls-3"
     d="M65.65,124.26v-100C73,34.72,85.16,48.4,101.4,49.66c27.67,2.15,39.35-37,70.11-35.59,16.19.73,31,12.22,39,24.37a56.25,56.25,0,0,1,9.1,30.84"
     transform="translate(0 -13.03)"
     id="path120" />
  <path
     class="cls-3"
     d="M65.74,166.21v59.21a49.63,49.63,0,0,0,15.77,17c14.92,9.77,31.32,8.2,40.85,7.28,8.87-.84,15.15-2.85,27.71-6.87,25.64-8.2,27.66-13.14,36.61-11.53,15.55,2.8,21.84,19.93,28.33,17.38,2.62-1,4.93-5.15,4.7-17.41"
     transform="translate(0 -13.03)"
     id="path122" />
</svg>
