<?xml version="1.0" encoding="UTF-8" standalone="no"?>
<svg
   xmlns:dc="http://purl.org/dc/elements/1.1/"
   xmlns:cc="http://creativecommons.org/ns#"
   xmlns:rdf="http://www.w3.org/1999/02/22-rdf-syntax-ns#"
   xmlns:svg="http://www.w3.org/2000/svg"
   xmlns="http://www.w3.org/2000/svg"
   xmlns:sodipodi="http://sodipodi.sourceforge.net/DTD/sodipodi-0.dtd"
   xmlns:inkscape="http://www.inkscape.org/namespaces/inkscape"
   id="Слой_1"
   data-name="Слой 1"
   viewBox="0 0 422.61 224.55"
   version="1.1"
   sodipodi:docname="Logo3.svg"
   inkscape:version="1.0.1 (3bc2e813f5, 2020-09-07)">
  <metadata
     id="metadata133">
    <rdf:RDF>
      <cc:Work
         rdf:about="">
        <dc:format>image/svg+xml</dc:format>
        <dc:type
           rdf:resource="http://purl.org/dc/dcmitype/StillImage" />
      </cc:Work>
    </rdf:RDF>
  </metadata>
  <sodipodi:namedview
     pagecolor="#ffffff"
     bordercolor="#666666"
     borderopacity="1"
     objecttolerance="10"
     gridtolerance="10"
     guidetolerance="10"
     inkscape:pageopacity="0"
     inkscape:pageshadow="2"
     inkscape:window-width="1920"
     inkscape:window-height="1017"
     id="namedview131"
     showgrid="false"
     inkscape:zoom="3.0784885"
     inkscape:cx="211.30499"
     inkscape:cy="112.275"
     inkscape:window-x="-8"
     inkscape:window-y="-8"
     inkscape:window-maximized="1"
     inkscape:current-layer="Слой_1" />
  <defs
     id="defs4">
    <style
       id="style2">.cls-1{fill:#293956;}.cls-2,.cls-4,.cls-5{fill:#e67e42;}.cls-3{fill:none;}.cls-3,.cls-4,.cls-5{stroke:#e67e42;stroke-miterlimit:10;}.cls-3,.cls-4{stroke-width:2px;}.cls-6{fill:#e57e42;}.cls-7{fill:#fff;}</style>
  </defs>
  <path
     class="cls-1"
     d="M148.34,77c15.73-20.37,41.34-33.64,70.26-33.64C174.78,43.35,136,56.62,112.17,77Z"
     id="path6"
     style="fill:#002959;fill-opacity:1" />
  <path
     class="cls-1"
     d="M148.72,171.29H112.39c23.79,20.59,62.8,34,106.88,34h0C190.17,205.3,164.42,191.88,148.72,171.29Z"
     id="path8"
     style="fill:#002959;fill-opacity:1" />
  <path
     class="cls-1"
     d="M290.2,77c-15.72-20.37-41.33-33.64-70.26-33.64,43.82,0,82.62,13.27,106.44,33.64Z"
     id="path10"
     style="fill:#002959;fill-opacity:1" />
  <path
     class="cls-1"
     d="M289.82,171.29h36.33c-23.78,20.59-62.79,34-106.88,34h0C248.38,205.3,274.12,191.88,289.82,171.29Z"
     id="path12"
     style="fill:#002959;fill-opacity:1" />
  <path
     class="cls-1"
     d="M287.29,76.63C272,57.07,247.52,44.3,219.84,44.05V76.63Z"
     id="path14"
     style="fill:#002959;fill-opacity:1" />
  <path
     class="cls-1"
     d="M219.84,171v33c27.85-.24,52.49-13.16,67.75-33Z"
     id="path16"
     style="fill:#002959;fill-opacity:1" />
  <path
     class="cls-1"
     d="M164.35,122.84v12.83H144.26V122.06l-9.45,2.57A76.37,76.37,0,0,0,149.41,169H218.6V137.59Z"
     id="path18"
     style="fill:#002959;fill-opacity:1" />
  <path
     class="cls-1"
     d="M144.26,96h20.09V112l54.25-11.36V78.84H149.79A76.94,76.94,0,0,0,136,110.9l8.28,1.74Z"
     id="path20"
     style="fill:#002959;fill-opacity:1" />
  <path
     class="cls-1"
     d="M218.6,76.67V44.14c-27.58.35-52,13.07-67.25,32.53Z"
     id="path22"
     style="fill:#002959;fill-opacity:1" />
  <path
     class="cls-1"
     d="M151,171.05c15.23,19.71,39.78,32.63,67.58,33v-33Z"
     id="path24"
     style="fill:#002959;fill-opacity:1" />
  <ellipse
     class="cls-2"
     cx="154.31"
     cy="82.13"
     rx="1.25"
     ry="1.38"
     id="ellipse26" />
  <path
     class="cls-3"
     d="M212.67,224.61"
     id="path28" />
  <path
     class="cls-3"
     d="M269.84,221.33"
     id="path30" />
  <path
     class="cls-3"
     d="M220,204"
     id="path32" />
  <path
     class="cls-3"
     d="M325.48,13.06"
     id="path34" />
  <path
     class="cls-3"
     d="M382.66,9.78"
     id="path36" />
  <path
     class="cls-3"
     d="M332.78,0"
     id="path38" />
  <path
     class="cls-1"
     d="M134,110.52a77.66,77.66,0,0,1,13.64-31.63H110.68A73.29,73.29,0,0,0,93.18,102Z"
     id="path40"
     style="fill:#002959;fill-opacity:1" />
  <path
     class="cls-1"
     d="M89.66,136.87c3,11.86,10.13,22.86,20.5,32.43h37.09a76.93,76.93,0,0,1-14.55-44.14Z"
     id="path42"
     style="fill:#002959;fill-opacity:1" />
  <path
     class="cls-1"
     d="M293,85.09c-1.31-2.2-2.71-4.35-4.23-6.42H219.84v21.75Z"
     id="path44"
     style="fill:#002959;fill-opacity:1" />
  <path
     class="cls-1"
     d="M219.84,137.93v30.92h69.44a78.67,78.67,0,0,0,6.26-10.33Z"
     id="path46"
     style="fill:#002959;fill-opacity:1" />
  <path
     class="cls-1"
     d="M323.21,78.89H291c1.39,1.92,2.69,3.91,3.91,5.94Z"
     id="path48"
     style="fill:#002959;fill-opacity:1" />
  <path
     class="cls-1"
     d="M297.49,159.11a79.51,79.51,0,0,1-6.19,10.19h37.08c.5-.46,1-.92,1.45-1.39Z"
     id="path50"
     style="fill:#002959;fill-opacity:1" />
  <line
     class="cls-4"
     x1="137.43"
     y1="169.59"
     x2="170.71"
     y2="169.59"
     id="line52" />
  <path
     class="cls-2"
     d="M165.76,203c1,0,2,0,3,.12V169.59h-29.3v45h3.42C145.66,207.91,154.85,203,165.76,203Z"
     id="path54" />
  <rect
     class="cls-2"
     x="142.67"
     y="136.35"
     width="22.81"
     height="32.82"
     id="rect56" />
  <rect
     class="cls-5"
     x="141.61"
     y="136.35"
     width="25.14"
     height="0.18"
     id="rect58" />
  <rect
     class="cls-5"
     x="140.4"
     y="135.67"
     width="27.34"
     height="0.18"
     id="rect60" />
  <path
     class="cls-5"
     d="M154.31,83.37c-6.3,0-11.41,5.46-11.41,12.19h22.81C165.71,88.83,160.61,83.37,154.31,83.37Z"
     id="path62" />
  <line
     class="cls-4"
     x1="141.49"
     y1="95.98"
     x2="167.13"
     y2="95.98"
     id="line64" />
  <path
     class="cls-6"
     d="M191.59,111.68a5.65,5.65,0,0,1,3.38.86,3.38,3.38,0,0,1,1.32,2.84,4.14,4.14,0,0,1-4.4,4.1,3.51,3.51,0,0,1-.54,0l-1.38-.36v3.12c0,1.69.14,1.73,2,1.92v.57h-5.52v-.57c1.72-.18,1.8-.3,1.8-2v-7.94c0-1.78-.22-1.82-1.8-2v-.56Zm-1.62,6.7a3.63,3.63,0,0,0,1.46.26c1.34,0,3-.68,3-3.2a2.84,2.84,0,0,0-3.12-3.08,1.78,1.78,0,0,0-1.12.24c-.16.14-.22.38-.22.92Z"
     id="path66" />
  <path
     class="cls-6"
     d="M206.81,124.69v-.57c1.3-.15,1.46-.35,1.18-1.12s-.66-1.78-1.08-3h-4.32c-.32.9-.62,1.68-.9,2.5-.44,1.31-.16,1.47,1.48,1.66v.57h-4.62v-.57c1.26-.15,1.58-.3,2.28-2.1l4.14-10.5.64-.12c1.26,3.42,2.64,7.2,3.9,10.66.64,1.75.82,1.91,2.24,2.06v.57Zm-2-10.67c-.64,1.72-1.32,3.54-1.92,5.12h3.74Z"
     id="path68" />
  <path
     class="cls-6"
     d="M225.93,121.5c-.12.52-.66,2.58-.86,3.19h-9.72v-.57c1.86-.14,2-.31,2-2v-7.9c0-1.78-.22-1.88-1.72-2v-.56h6.12c1.88,0,2.66,0,2.9,0,0,.5.1,2,.18,3.06l-.6.1a6.66,6.66,0,0,0-.6-1.52c-.32-.66-.78-.8-2-.8h-1.9c-.62,0-.66.06-.66.64v4.42h2.22c1.5,0,1.6-.3,1.84-1.66h.62V120h-.62c-.26-1.44-.42-1.64-1.86-1.64h-2.2v4c0,1.4.44,1.52,1.44,1.55h1.86c1.22,0,1.42-.19,1.86-.7a8.91,8.91,0,0,0,1.08-1.85Z"
     id="path70" />
  <path
     class="cls-6"
     d="M251.05,119.22c-1.24.16-1.32.28-1.32,1.46v1.68a11.1,11.1,0,0,0,.12,1.91,20.41,20.41,0,0,1-4.54.71c-4.54,0-7.3-2.82-7.3-6.84,0-4.22,3.44-6.74,7.44-6.74a20.47,20.47,0,0,1,4.16.5c0,.74.14,2,.3,3.22l-.6.12c-.48-1.7-1.06-2.42-2.32-2.84a6.74,6.74,0,0,0-1.86-.26c-3.06,0-5,2.1-5,5.76,0,3.18,1.64,6.34,5.52,6.34a4,4,0,0,0,1.7-.34,1.19,1.19,0,0,0,.68-1.28V121c0-1.46-.16-1.62-2.08-1.76v-.58h5.14Z"
     id="path72" />
  <path
     class="cls-6"
     d="M269.05,112.24c-1.26.08-1.72.4-1.76,1.32,0,.46-.06,1.3-.06,3.14v2.16c0,2-.24,3.6-1.4,4.83a4.93,4.93,0,0,1-3.68,1.28,5.43,5.43,0,0,1-3.28-.92c-1.2-.93-1.78-2.31-1.78-4.65v-5.1c0-1.8-.16-1.92-1.76-2.06v-.56h5.26v.56c-1.6.1-1.76.26-1.76,2.06v5c0,2.92,1.38,4.52,3.78,4.52,2.84,0,3.74-1.76,3.74-5.08v-2c0-1.84-.06-2.6-.1-3.14-.06-.9-.52-1.24-2-1.32v-.56h4.8Zm-7.7-3.2a1,1,0,0,1-1,1,1.06,1.06,0,0,1,0-2.12A1,1,0,0,1,261.35,109Zm4,0a1,1,0,1,1-1-1.08A1,1,0,0,1,265.35,109Z"
     id="path74" />
  <path
     class="cls-6"
     d="M284.07,124.69v-.57c1.64-.15,1.7-.27,1.68-2.42l0-8.16c-1.64,3.66-4.28,9.38-5,11.15h-.52c-.68-1.83-2.94-7.33-4.46-11-.34,7-.36,8.58-.36,9,0,1.12.52,1.28,1.88,1.42v.57h-4.74v-.57c1.16-.11,1.64-.35,1.8-1.43.12-.89.14-1.61.66-8.91.08-1-.12-1.38-1.88-1.54v-.56h3.48l4.42,10.14,4.74-10.14h3.5v.56c-1.72.2-1.94.38-1.9,1.78l.08,7.68c.08,2.15.14,2.24,1.9,2.42v.57Z"
     id="path76" />
  <path
     class="cls-6"
     d="M308,112.24c-1.28.14-1.7.34-1.76,1.26,0,.64-.06,1.48-.06,3.34v8h-.76l-8.56-10.46v5c0,1.8.06,2.7.1,3.29,0,1,.54,1.32,2,1.43v.57h-4.86v-.57c1.24-.1,1.72-.39,1.8-1.38.06-.64.1-1.54.1-3.36v-5.1a1.74,1.74,0,0,0-.4-1.32c-.38-.5-.8-.62-1.78-.72v-.56h3l8.48,10.06v-4.9c0-1.86,0-2.72-.1-3.32-.06-.9-.52-1.18-2.12-1.28v-.56H308Z"
     id="path78" />
  <path
     class="cls-6"
     d="M319.45,124.69v-.57c1.3-.15,1.46-.35,1.18-1.12s-.66-1.78-1.08-3h-4.32c-.32.9-.62,1.68-.9,2.5-.44,1.31-.16,1.47,1.48,1.66v.57h-4.62v-.57c1.26-.15,1.58-.3,2.28-2.1l4.14-10.5.64-.12c1.26,3.42,2.64,7.2,3.9,10.66.64,1.75.82,1.91,2.24,2.06v.57Zm-2-10.67c-.64,1.72-1.32,3.54-1.92,5.12h3.74Z"
     id="path80" />
  <path
     class="cls-6"
     d="M335.65,124.69v-.57c1.3-.15,1.46-.35,1.18-1.12s-.66-1.78-1.08-3h-4.32c-.32.9-.62,1.68-.9,2.5-.44,1.31-.16,1.47,1.48,1.66v.57h-4.62v-.57c1.26-.15,1.58-.3,2.28-2.1l4.14-10.5.64-.12c1.26,3.42,2.64,7.2,3.9,10.66.64,1.75.82,1.91,2.24,2.06v.57Zm-2-10.67c-.64,1.72-1.32,3.54-1.92,5.12h3.74Z"
     id="path82" />
  <path
     class="cls-6"
     d="M351.65,114.72c-.34-1.32-.9-2.62-2.78-2.62a2,2,0,0,0-2.1,2.18c0,1.38.88,2.08,2.54,2.94,2.4,1.24,3.44,2.16,3.44,4.06,0,2.11-1.82,3.7-4.4,3.7a8.34,8.34,0,0,1-3.06-.66,26.85,26.85,0,0,1-.54-3l.62-.16c.4,1.34,1.28,3.08,3.36,3.08a2.2,2.2,0,0,0,2.32-2.3c0-1.54-.82-2.16-2.58-3.12-2.1-1.14-3.28-2.1-3.28-4s1.48-3.46,4.12-3.46a12.8,12.8,0,0,1,2.64.38c.08.72.16,1.52.32,2.82Z"
     id="path84" />
  <path
     class="cls-6"
     d="M357.47,124.69v-.57c1.64-.18,1.8-.26,1.8-2v-7.94c0-1.72-.16-1.8-1.8-2v-.56h5.36v.56c-1.66.18-1.82.26-1.82,2v7.94c0,1.73.16,1.78,1.82,2v.57Z"
     id="path86" />
  <path
     class="cls-6"
     d="M381.27,112.24c-1.26.08-1.72.4-1.76,1.32,0,.46-.06,1.3-.06,3.14v2.16c0,2-.24,3.6-1.4,4.83a4.93,4.93,0,0,1-3.68,1.28,5.43,5.43,0,0,1-3.28-.92c-1.2-.93-1.78-2.31-1.78-4.65v-5.1c0-1.8-.16-1.92-1.76-2.06v-.56h5.26v.56c-1.6.1-1.76.26-1.76,2.06v5c0,2.92,1.38,4.52,3.78,4.52,2.84,0,3.74-1.76,3.74-5.08v-2c0-1.84-.06-2.6-.1-3.14-.06-.9-.52-1.24-2-1.32v-.56h4.8Z"
     id="path88" />
  <path
     class="cls-6"
     d="M396.29,124.69v-.57c1.64-.15,1.7-.27,1.68-2.42l0-8.16c-1.64,3.66-4.28,9.38-5,11.15h-.52c-.68-1.83-2.94-7.33-4.46-11-.34,7-.36,8.58-.36,9,0,1.12.52,1.28,1.88,1.42v.57h-4.74v-.57c1.16-.11,1.64-.35,1.8-1.43.12-.89.14-1.61.66-8.91.08-1-.12-1.38-1.88-1.54v-.56h3.48l4.42,10.14L398,111.68h3.5v.56c-1.72.2-1.94.38-1.9,1.78l.08,7.68c.08,2.15.14,2.24,1.9,2.42v.57Z"
     id="path90" />
  <path
     class="cls-1"
     d="M13.07,114.82a7.59,7.59,0,0,0-.64-1.66c-.32-.54-.52-.68-1.62-.68h-2v9.74c0,1.56.16,1.79,2.06,1.9v.57H5.05v-.57c1.86-.11,2-.31,2-1.9v-9.74H5.25c-1.1,0-1.42.12-1.76.72a9.14,9.14,0,0,0-.66,1.62h-.6c.12-1.22.24-2.48.3-3.6H3c.3.48.52.46,1.08.46H12a1,1,0,0,0,1-.46h.48c0,.94.08,2.38.18,3.54Z"
     id="path92"
     style="fill:#002959;fill-opacity:1" />
  <path
     class="cls-1"
     d="M24,124.69v-.57c1.3-.15,1.46-.35,1.18-1.12s-.66-1.78-1.08-3H19.73c-.32.9-.62,1.68-.9,2.5-.44,1.31-.16,1.47,1.48,1.66v.57H15.69v-.57c1.26-.15,1.58-.3,2.28-2.1l4.14-10.5.64-.12c1.26,3.42,2.64,7.2,3.9,10.66.64,1.75.82,1.91,2.24,2.06v.57ZM22,114c-.64,1.72-1.32,3.54-1.92,5.12h3.74Z"
     id="path94"
     style="fill:#002959;fill-opacity:1" />
  <path
     class="cls-1"
     d="M42.73,121.36c-.12.62-.72,2.7-.92,3.33h-9.3v-.57c1.82-.18,2-.27,2-2V114.2c0-1.7-.2-1.8-1.8-2v-.56h5.36v.56c-1.6.16-1.82.24-1.82,2v8.14c0,1.22.16,1.51,1.3,1.52l1.58,0c1,0,1.32-.12,1.78-.62a7,7,0,0,0,1.22-2.07Z"
     id="path96"
     style="fill:#002959;fill-opacity:1" />
  <path
     class="cls-1"
     d="M57.09,121.36c-.12.62-.72,2.7-.92,3.33h-9.3v-.57c1.82-.18,2-.27,2-2V114.2c0-1.7-.2-1.8-1.8-2v-.56h5.36v.56c-1.6.16-1.82.24-1.82,2v8.14c0,1.22.16,1.51,1.3,1.52l1.58,0c1,0,1.32-.12,1.78-.62a7,7,0,0,0,1.22-2.07Z"
     id="path98"
     style="fill:#002959;fill-opacity:1" />
  <path
     class="cls-1"
     d="M61.41,124.69v-.57c1.64-.18,1.8-.26,1.8-2v-7.94c0-1.72-.16-1.8-1.8-2v-.56h5.36v.56c-1.66.18-1.82.26-1.82,2v7.94c0,1.73.16,1.78,1.82,2v.57Z"
     id="path100"
     style="fill:#002959;fill-opacity:1" />
  <path
     class="cls-1"
     d="M85.61,112.24c-1.28.14-1.7.34-1.76,1.26,0,.64-.06,1.48-.06,3.34v8H83L74.47,114.4v5c0,1.8.06,2.7.1,3.29,0,1,.54,1.32,2,1.43v.57H71.69v-.57c1.24-.1,1.72-.39,1.8-1.38.06-.64.1-1.54.1-3.36v-5.1a1.74,1.74,0,0,0-.4-1.32c-.38-.5-.8-.62-1.78-.72v-.56h3l8.48,10.06v-4.9c0-1.86,0-2.72-.1-3.32-.06-.9-.52-1.18-2.12-1.28v-.56h4.94Z"
     id="path102"
     style="fill:#002959;fill-opacity:1" />
  <path
     class="cls-1"
     d="M104,112.24c-1.28.14-1.7.34-1.76,1.26,0,.64-.06,1.48-.06,3.34v8h-.76L92.89,114.4v5c0,1.8.06,2.7.1,3.29,0,1,.54,1.32,2,1.43v.57H90.11v-.57c1.24-.1,1.72-.39,1.8-1.38.06-.64.1-1.54.1-3.36v-5.1a1.74,1.74,0,0,0-.4-1.32c-.38-.5-.8-.62-1.78-.72v-.56h3l8.48,10.06v-4.9c0-1.86,0-2.72-.1-3.32-.06-.9-.52-1.18-2.12-1.28v-.56H104Z"
     id="path104"
     style="fill:#002959;fill-opacity:1" />
  <path
     class="cls-1"
     d="M115.47,124.69v-.57c1.3-.15,1.46-.35,1.18-1.12s-.66-1.78-1.08-3h-4.32c-.32.9-.62,1.68-.9,2.5-.44,1.31-.16,1.47,1.48,1.66v.57h-4.62v-.57c1.26-.15,1.58-.3,2.28-2.1l4.14-10.5.64-.12c1.26,3.42,2.64,7.2,3.9,10.66.64,1.75.82,1.91,2.24,2.06v.57Zm-2-10.67c-.64,1.72-1.32,3.54-1.92,5.12h3.74Z"
     id="path106"
     style="fill:#002959;fill-opacity:1" />
  <polygon
     class="cls-2"
     points="9.16 128.28 9.16 139.77 114.33 128.28 9.16 128.28"
     id="polygon108" />
  <polygon
     class="cls-2"
     points="29.71 143.51 29.71 150.94 114.33 128.31 114.33 128.28 29.71 143.51"
     id="polygon110" />
  <path
     class="cls-3"
     d="M65.22,98.56V15.49c8.21,4.2,20.7,9.07,35.71,8.47,28.34-1.12,37-20.58,68.53-22.63C178.38.75,197.94-.53,210,12.74c9.71,10.69,9.44,25.2,9.06,30.62"
     id="path112" />
  <path
     class="cls-3"
     d="M65.3,140.26v59.21a47.49,47.49,0,0,0,15.77,17c13.82,8.77,29,7.4,41.46,6.27,9.73-.88,17.63-1.59,27.11-5.86,10.58-4.78,18.56-10.73,32.4-11.79a16.28,16.28,0,0,1,4.2.26c15.49,2.78,21.77,19.92,28.34,17.37,2.09-.81,4.56-4,4.91-17.4"
     id="path114" />
  <polygon
     class="cls-2"
     points="0 107 109.53 107 0 84.12 0 107"
     id="polygon116" />
  <polygon
     class="cls-2"
     points="422.61 61.1 201.45 105.97 422.61 105.97 422.61 61.1"
     id="polygon118" />
  <polygon
     class="cls-2"
     points="400.37 168.99 400.37 130.5 201.6 130.5 400.37 168.99"
     id="polygon120" />
  <path
     class="cls-7"
     d="M354,151.79v-.56c2.22-.14,2.34-.24,2.34-1.74V141.8c0-1-.14-1.06-1-1.14l-1-.1v-.5a16.51,16.51,0,0,0,3.66-1v10.41c0,1.52.12,1.6,2.36,1.74v.56Z"
     id="path122" />
  <path
     class="cls-7"
     d="M368.78,146l-1.34.69a2.59,2.59,0,0,1-1.2.3,3.57,3.57,0,0,1-3.6-3.75,4.12,4.12,0,0,1,4.1-4.14c2.58,0,4,2.28,4,5a8,8,0,0,1-5.06,7.49,9.37,9.37,0,0,1-2.38.52l-.16-.58A6.77,6.77,0,0,0,368.78,146Zm-2.28-6.2c-1.56,0-2.1,1.48-2.1,2.88,0,1.77,1,3.23,2.66,3.23a3.06,3.06,0,0,0,1.8-.58,10.21,10.21,0,0,0,.08-1.31C368.94,142.22,368.44,139.78,366.5,139.78Z"
     id="path124" />
  <path
     class="cls-7"
     d="M379.74,139.32l.12.16-.52,1.32h-4.6c-.18,1.1-.44,2.66-.62,3.64a9.33,9.33,0,0,1,2.36-.58,3.49,3.49,0,0,1,3.76,3.41,4.24,4.24,0,0,1-1.72,3.36A6.13,6.13,0,0,1,375,152a3,3,0,0,1-2.08-.78c-.28-.26-.36-.42-.32-.68a1,1,0,0,1,.42-.68.43.43,0,0,1,.56,0,3.5,3.5,0,0,0,2.52,1.1c1.68,0,2.48-1.44,2.48-2.94,0-1.76-1.06-3-3.28-3a5.71,5.71,0,0,0-2,.37l-.06-.08c.3-1.57.74-4.39,1-6Z"
     id="path126" />
  <path
     class="cls-7"
     d="M385.42,144.24a2.85,2.85,0,0,1,1.28-.34,3.56,3.56,0,0,1,3.58,3.71,4.22,4.22,0,0,1-4.12,4.42c-2.36,0-4.16-1.94-4.16-5a8.17,8.17,0,0,1,5.54-7.54,16.9,16.9,0,0,1,2.26-.52l.12.66a12,12,0,0,0-2.18.68,6.34,6.34,0,0,0-3.66,4.63Zm.48.81a4.09,4.09,0,0,0-1.94.55,6.91,6.91,0,0,0-.12,1.37c0,2.5.94,4.34,2.64,4.34s2-1.64,2-3C388.52,146.67,387.72,145.05,385.9,145.05Z"
     id="path128" />
</svg>
