<?xml version="1.0" encoding="utf-8"?>
<!-- Generator: Adobe Illustrator 25.0.0, SVG Export Plug-In . SVG Version: 6.00 Build 0)  -->
<svg version="1.1"
	 id="Слой_1" inkscape:version="1.0.1 (3bc2e813f5, 2020-09-07)" sodipodi:docname="Logo.svg" xmlns:cc="http://creativecommons.org/ns#" xmlns:dc="http://purl.org/dc/elements/1.1/" xmlns:inkscape="http://www.inkscape.org/namespaces/inkscape" xmlns:rdf="http://www.w3.org/1999/02/22-rdf-syntax-ns#" xmlns:sodipodi="http://sodipodi.sourceforge.net/DTD/sodipodi-0.dtd" xmlns:svg="http://www.w3.org/2000/svg"
	 xmlns="http://www.w3.org/2000/svg" xmlns:xlink="http://www.w3.org/1999/xlink" x="0px" y="0px" viewBox="0 0 447.4 212.5"
	 style="enable-background:new 0 0 447.4 212.5;" xml:space="preserve">
<style type="text/css">
	.st0{fill:none;stroke:#E67E42;stroke-width:2;stroke-miterlimit:10;}
	.st1{fill:#002959;}
	.st2{fill:none;stroke:#FFFFFF;stroke-width:2;stroke-miterlimit:10;}
	.st3{fill:#FFFFFF;}
	.st4{fill:#E67E42;}
	.st5{fill:#E67E42;stroke:#E67E42;stroke-miterlimit:10;}
	.st6{fill:none;}
	.st7{font-family:'FrankRuhlHofshi-Regular';}
	.st8{font-size:16px;}
	.st9{letter-spacing:2;}
</style>
<sodipodi:namedview  bordercolor="#666666" borderopacity="1" gridtolerance="10" guidetolerance="10" id="namedview79" inkscape:current-layer="Слой_1" inkscape:cx="292.10922" inkscape:cy="106.25" inkscape:pageopacity="0" inkscape:pageshadow="2" inkscape:window-height="1282" inkscape:window-maximized="0" inkscape:window-width="2136" inkscape:window-x="1437" inkscape:window-y="405" inkscape:zoom="4.4389808" objecttolerance="10" pagecolor="#ffffff" showgrid="false">
	</sodipodi:namedview>
<path id="path4" class="st0" d="M299.8,30.6C270.4,1.6,254-1.2,244.2,2.1c-1,0.3-1.2,0.4-12.6,6.7c-18.6,10.2-28,15.3-31.2,16.1
	c-7.3,1.8-20.9,1.5-43-19c0,64.3,0,128.5,0,192.8c22.1,13.3,38.4,13.9,49.2,12.1c21.2-3.6,31-18.6,50.2-16.6
	c15.6,1.6,20.9,17.6,27.8,15c4.3-1.6,8.3-9.2,6.3-37.1"/>
<ellipse id="ellipse6" class="st1" cx="291.6" cy="104.8" rx="131.2" ry="81"/>
<ellipse id="ellipse8" class="st2" cx="291.6" cy="104.8" rx="85.9" ry="81"/>
<line id="line10" class="st2" x1="183" y1="58.5" x2="400.3" y2="58.5"/>
<line id="line12" class="st2" x1="182.9" y1="150.8" x2="400.2" y2="150.8"/>
<line id="line14" class="st2" x1="291.6" y1="185.8" x2="291.6" y2="23.8"/>
<g id="g42">
	<rect id="rect16" x="210.5" y="76.9" class="st3" width="20.1" height="39.7"/>
	<g id="g38">
		<g id="g30">
			<g id="g22">
				<line id="line18" class="st0" x1="204" y1="150.9" x2="237.2" y2="150.9"/>
				<path id="path20" class="st4" d="M232.3,184.3c1,0,2,0,3,0.1v-33.5H206v45h3.4C212.2,189.3,221.4,184.3,232.3,184.3z"/>
			</g>
			<rect id="rect24" x="209.2" y="117.7" class="st4" width="22.8" height="32.8"/>
			<rect id="rect26" x="208.1" y="117.7" class="st5" width="25.1" height="0.2"/>
			<rect id="rect28" x="206.9" y="117" class="st5" width="27.3" height="0.2"/>
		</g>
		<g id="g36">
			<path id="path32" class="st5" d="M220.6,63.4c-6.3,0-11.4,5.5-11.4,12.2H232C232,68.9,226.9,63.4,220.6,63.4z"/>
			<line id="line34" class="st0" x1="207.8" y1="76" x2="233.4" y2="76"/>
		</g>
	</g>
	<ellipse id="ellipse40" class="st4" cx="220.6" cy="61.6" rx="1.3" ry="1.4"/>
</g>
<g id="g48">
	<g id="g46">
		<polygon id="polygon44" class="st3" points="226.3,95.6 226.3,102.9 435.8,159.9 435.8,51.7 		"/>
	</g>
</g>
<polygon id="polygon50" class="st4" points="255.3,90.2 444,90.2 444,64.2 "/>
<rect id="rect52" x="259.5" y="95.5" class="st6" width="188" height="13.3"/>
<text id="text54" transform="matrix(1 0 0 1 259.461 106.5253)" class="st4 st7 st8 st9">PAE GÜMNAASIUM</text>
<polygon id="polygon56" class="st4" points="256.3,110.5 428.3,110.5 428.3,130.5 "/>
<g id="g62">
	<g id="g60">
		<polygon id="polygon58" class="st3" points="5.2,51.7 5.2,159.9 214.8,102.9 214.8,95.6 		"/>
	</g>
</g>
<rect id="rect64" x="91.5" y="95.5" class="st6" width="98" height="13.3"/>
<text id="text66" transform="matrix(1 0 0 1 91.4771 106.5252)" class="st1 st7 st8 st9">TALLINNA</text>
<polygon id="polygon68" class="st4" points="182.1,110.5 55,110.5 55,133.8 "/>
<polygon id="polygon70" class="st4" points="189.5,91.5 70.1,91.5 70.1,80.3 "/>
<rect id="rect72" x="390.3" y="111.7" class="st6" width="34.4" height="13.3"/>
<text id="text74" transform="matrix(1 0 0 1 391.1398 124.1435)" class="st3 st7 st8">1956</text>
<polygon id="polygon76" class="st4" points="189.5,91.5 107.7,75 110,63.5 "/>
</svg>
