<svg id="Слой_1" data-name="Слой 1" xmlns="http://www.w3.org/2000/svg" viewBox="0 0 422.61 224.57"><defs><style>.cls-1{fill:#002959;}.cls-2,.cls-4{fill:#e67e42;}.cls-3{fill:none;stroke-width:2px;}.cls-3,.cls-4{stroke:#e67e42;stroke-miterlimit:10;}.cls-5{fill:#e57e42;}.cls-6{fill:#fff;}</style></defs><path id="path6" class="cls-1" d="M148.34,77c15.73-20.37,41.34-33.64,70.26-33.64C174.78,43.35,136,56.62,112.17,77Z" transform="translate(0 0)"/><path id="path8" class="cls-1" d="M148.72,171.29H112.39c23.79,20.59,62.8,34,106.88,34h0C190.17,205.3,164.42,191.88,148.72,171.29Z" transform="translate(0 0)"/><path id="path10" class="cls-1" d="M290.2,77c-15.72-20.37-41.33-33.64-70.26-33.64,43.82,0,82.62,13.27,106.44,33.64Z" transform="translate(0 0)"/><path id="path12" class="cls-1" d="M289.82,171.29h36.33c-23.78,20.59-62.79,34-106.88,34h0C248.38,205.3,274.12,191.88,289.82,171.29Z" transform="translate(0 0)"/><path id="path14" class="cls-1" d="M287.29,76.63C272,57.07,247.52,44.3,219.84,44.05V76.63Z" transform="translate(0 0)"/><path id="path16" class="cls-1" d="M219.84,171v33c27.85-.24,52.49-13.16,67.75-33Z" transform="translate(0 0)"/><path id="path18" class="cls-1" d="M164.35,122.84v12.83H144.26V122.06l-9.45,2.57A76.36,76.36,0,0,0,149.41,169H218.6V137.59Z" transform="translate(0 0)"/><path id="path20" class="cls-1" d="M144.26,96h20.09v16l54.25-11.36V78.84H149.79A77,77,0,0,0,136,110.9l8.28,1.74Z" transform="translate(0 0)"/><path id="path22" class="cls-1" d="M218.6,76.67V44.14c-27.58.35-52,13.07-67.25,32.53Z" transform="translate(0 0)"/><path id="path24" class="cls-1" d="M151,171.05c15.23,19.71,39.78,32.63,67.58,33v-33Z" transform="translate(0 0)"/><ellipse id="ellipse26" class="cls-2" cx="154.31" cy="82.13" rx="1.25" ry="1.38"/><path id="path28" class="cls-3" d="M212.67,224.61" transform="translate(0 0)"/><path id="path30" class="cls-3" d="M269.84,221.33" transform="translate(0 0)"/><path id="path32" class="cls-3" d="M220,204" transform="translate(0 0)"/><path id="path34" class="cls-3" d="M325.48,13.06" transform="translate(0 0)"/><path id="path36" class="cls-3" d="M382.66,9.78" transform="translate(0 0)"/><path id="path38" class="cls-3" d="M332.78,0" transform="translate(0 0)"/><path id="path40" class="cls-1" d="M134,110.52a77.61,77.61,0,0,1,13.64-31.63h-37A73.4,73.4,0,0,0,93.18,102Z" transform="translate(0 0)"/><path id="path42" class="cls-1" d="M89.66,136.87c3,11.86,10.13,22.86,20.5,32.43h37.09a76.94,76.94,0,0,1-14.55-44.14Z" transform="translate(0 0)"/><path id="path44" class="cls-1" d="M293,85.09c-1.31-2.2-2.71-4.35-4.23-6.42H219.84v21.75Z" transform="translate(0 0)"/><path id="path46" class="cls-1" d="M219.84,137.93v30.92h69.44a78.67,78.67,0,0,0,6.26-10.33Z" transform="translate(0 0)"/><path id="path48" class="cls-1" d="M323.21,78.89H291c1.39,1.92,2.69,3.91,3.91,5.94Z" transform="translate(0 0)"/><path id="path50" class="cls-1" d="M297.49,159.11a79.51,79.51,0,0,1-6.19,10.19h37.08c.5-.46,1-.92,1.45-1.39Z" transform="translate(0 0)"/><line id="line52" class="cls-3" x1="137.43" y1="169.59" x2="170.71" y2="169.59"/><path id="path54" class="cls-2" d="M165.76,203a25.08,25.08,0,0,1,3,.12V169.59h-29.3v45h3.42C145.66,207.91,154.85,203,165.76,203Z" transform="translate(0 0)"/><rect id="rect56" class="cls-2" x="142.67" y="136.35" width="22.81" height="32.82"/><rect id="rect58" class="cls-4" x="141.61" y="136.35" width="25.14" height="0.18"/><rect id="rect60" class="cls-4" x="140.4" y="135.67" width="27.34" height="0.18"/><path id="path62" class="cls-4" d="M154.31,83.37c-6.3,0-11.41,5.46-11.41,12.19h22.81C165.71,88.83,160.61,83.37,154.31,83.37Z" transform="translate(0 0)"/><line id="line64" class="cls-3" x1="141.49" y1="95.98" x2="167.13" y2="95.98"/><path id="path66" class="cls-5" d="M191.59,111.68a5.6,5.6,0,0,1,3.38.86,3.37,3.37,0,0,1,1.32,2.84,4.14,4.14,0,0,1-4.17,4.11h-.77l-1.38-.36v3.12c0,1.69.14,1.73,2,1.92v.57h-5.52v-.57c1.72-.18,1.8-.3,1.8-2v-7.94c0-1.78-.22-1.82-1.8-2v-.56Zm-1.62,6.7a3.63,3.63,0,0,0,1.46.26c1.34,0,3-.68,3-3.2a2.84,2.84,0,0,0-2.57-3.08,2.53,2.53,0,0,0-.55,0,1.76,1.76,0,0,0-1.12.24c-.16.14-.22.38-.22.92Z" transform="translate(0 0)"/><path id="path68" class="cls-5" d="M206.81,124.69v-.57c1.3-.15,1.46-.35,1.18-1.12s-.66-1.78-1.08-3h-4.32c-.32.9-.62,1.68-.9,2.5-.44,1.31-.16,1.47,1.48,1.66v.57h-4.62v-.57c1.26-.15,1.58-.3,2.28-2.1l4.14-10.5.64-.12c1.26,3.42,2.64,7.2,3.9,10.66.64,1.75.82,1.91,2.24,2.06v.57Zm-2-10.67c-.64,1.72-1.32,3.54-1.92,5.12h3.74Z" transform="translate(0 0)"/><path id="path70" class="cls-5" d="M225.93,121.5c-.12.52-.66,2.58-.86,3.19h-9.72v-.57c1.86-.14,2-.31,2-2v-7.9c0-1.78-.22-1.88-1.72-2v-.56h9c0,.5.1,2,.18,3.06l-.6.1a6.87,6.87,0,0,0-.6-1.52c-.32-.66-.78-.8-2-.8h-1.9c-.62,0-.66.06-.66.64v4.42h2.22c1.5,0,1.6-.3,1.84-1.66h.62V120h-.62c-.26-1.44-.42-1.64-1.86-1.64h-2.2v4c0,1.4.44,1.52,1.44,1.55h1.86c1.22,0,1.42-.19,1.86-.7a8.78,8.78,0,0,0,1.08-1.85Z" transform="translate(0 0)"/><path id="path72" class="cls-5" d="M251.05,119.22c-1.24.16-1.32.28-1.32,1.46v1.68a11.08,11.08,0,0,0,.12,1.91,20.46,20.46,0,0,1-4.54.71c-4.54,0-7.3-2.82-7.3-6.84,0-4.22,3.44-6.74,7.44-6.74a20.13,20.13,0,0,1,4.16.5,30,30,0,0,0,.3,3.22l-.6.12c-.48-1.7-1.06-2.42-2.32-2.84a6.85,6.85,0,0,0-1.86-.26c-3.06,0-5,2.1-5,5.76,0,3.18,1.64,6.34,5.52,6.34a4,4,0,0,0,1.7-.34,1.19,1.19,0,0,0,.68-1.28V121c0-1.46-.16-1.62-2.08-1.76v-.58h5.14Z" transform="translate(0 0)"/><path id="path74" class="cls-5" d="M269.05,112.24c-1.26.08-1.72.4-1.76,1.32,0,.46-.06,1.3-.06,3.14v2.16c0,2-.24,3.6-1.4,4.83a4.93,4.93,0,0,1-3.68,1.28,5.47,5.47,0,0,1-3.28-.92c-1.2-.93-1.78-2.31-1.78-4.65v-5.1c0-1.8-.16-1.92-1.76-2.06v-.56h5.26v.56c-1.6.1-1.76.26-1.76,2.06v5c0,2.92,1.38,4.52,3.78,4.52,2.84,0,3.74-1.76,3.74-5.08v-2c0-1.84-.06-2.6-.1-3.14-.06-.9-.52-1.24-2-1.32v-.56h4.8Zm-7.7-3.2a1,1,0,0,1-1,1,1.06,1.06,0,0,1,0-2.12,1,1,0,0,1,1,1V109Zm4,0a1,1,0,1,1-2-.16,1,1,0,0,1,2,.08V109Z" transform="translate(0 0)"/><path id="path76" class="cls-5" d="M284.07,124.69v-.57c1.64-.15,1.7-.27,1.68-2.42v-8.16c-1.64,3.66-4.28,9.38-5,11.15h-.52c-.68-1.83-2.94-7.33-4.46-11-.34,7-.36,8.58-.36,9,0,1.12.52,1.28,1.88,1.42v.57h-4.74v-.57c1.16-.11,1.64-.35,1.8-1.43.12-.89.14-1.61.66-8.91.08-1-.12-1.38-1.88-1.54v-.56h3.48L281,121.81l4.74-10.14h3.5v.56c-1.72.2-1.94.38-1.9,1.78l.08,7.68c.08,2.15.14,2.24,1.9,2.42v.57Z" transform="translate(0 0)"/><path id="path78" class="cls-5" d="M308,112.24c-1.28.14-1.7.34-1.76,1.26,0,.64-.06,1.48-.06,3.34v8h-.76l-8.56-10.46v5c0,1.8.06,2.7.1,3.29,0,1,.54,1.32,2,1.43v.57H294.1v-.57c1.24-.1,1.72-.39,1.8-1.38.06-.64.1-1.54.1-3.36v-5.1a1.76,1.76,0,0,0-.4-1.32c-.38-.5-.8-.62-1.78-.72v-.56h3l8.48,10.06v-4.9a24.55,24.55,0,0,0-.1-3.32c-.06-.9-.52-1.18-2.12-1.28v-.56H308Z" transform="translate(0 0)"/><path id="path80" class="cls-5" d="M319.45,124.69v-.57c1.3-.15,1.46-.35,1.18-1.12s-.66-1.78-1.08-3h-4.32c-.32.9-.62,1.68-.9,2.5-.44,1.31-.16,1.47,1.48,1.66v.57h-4.62v-.57c1.26-.15,1.58-.3,2.28-2.1l4.14-10.5.64-.12c1.26,3.42,2.64,7.2,3.9,10.66.64,1.75.82,1.91,2.24,2.06v.57Zm-2-10.67c-.64,1.72-1.32,3.54-1.92,5.12h3.74Z" transform="translate(0 0)"/><path id="path82" class="cls-5" d="M335.65,124.69v-.57c1.3-.15,1.46-.35,1.18-1.12s-.66-1.78-1.08-3h-4.32c-.32.9-.62,1.68-.9,2.5-.44,1.31-.16,1.47,1.48,1.66v.57h-4.62v-.57c1.26-.15,1.58-.3,2.28-2.1l4.14-10.5.64-.12c1.26,3.42,2.64,7.2,3.9,10.66.64,1.75.82,1.91,2.24,2.06v.57Zm-2-10.67c-.64,1.72-1.32,3.54-1.92,5.12h3.74Z" transform="translate(0 0)"/><path id="path84" class="cls-5" d="M351.65,114.72c-.34-1.32-.9-2.62-2.78-2.62a2,2,0,0,0-2.11,1.89,2.81,2.81,0,0,0,0,.29c0,1.38.88,2.08,2.54,2.94,2.4,1.24,3.44,2.16,3.44,4.06,0,2.11-1.82,3.7-4.4,3.7a8.28,8.28,0,0,1-3.06-.66,25.48,25.48,0,0,1-.54-3l.62-.16c.4,1.34,1.28,3.08,3.36,3.08a2.2,2.2,0,0,0,2.32-2.07v-.23c0-1.54-.82-2.16-2.58-3.12-2.1-1.14-3.28-2.1-3.28-4s1.48-3.46,4.12-3.46a12.37,12.37,0,0,1,2.64.38c.08.72.16,1.52.32,2.82Z" transform="translate(0 0)"/><path id="path86" class="cls-5" d="M357.47,124.69v-.57c1.64-.18,1.8-.26,1.8-2v-7.94c0-1.72-.16-1.8-1.8-2v-.56h5.36v.56c-1.66.18-1.82.26-1.82,2v7.94c0,1.73.16,1.78,1.82,2v.57Z" transform="translate(0 0)"/><path id="path88" class="cls-5" d="M381.27,112.24c-1.26.08-1.72.4-1.76,1.32,0,.46-.06,1.3-.06,3.14v2.16c0,2-.24,3.6-1.4,4.83a4.93,4.93,0,0,1-3.68,1.28,5.47,5.47,0,0,1-3.28-.92c-1.2-.93-1.78-2.31-1.78-4.65v-5.1c0-1.8-.16-1.92-1.76-2.06v-.56h5.26v.56c-1.6.1-1.76.26-1.76,2.06v5c0,2.92,1.38,4.52,3.78,4.52,2.84,0,3.74-1.76,3.74-5.08v-2c0-1.84-.06-2.6-.1-3.14-.06-.9-.52-1.24-2-1.32v-.56h4.8Z" transform="translate(0 0)"/><path id="path90" class="cls-5" d="M396.29,124.69v-.57c1.64-.15,1.7-.27,1.68-2.42v-8.16c-1.64,3.66-4.28,9.38-5,11.15h-.52c-.68-1.83-2.94-7.33-4.46-11-.34,7-.36,8.58-.36,9,0,1.12.52,1.28,1.88,1.42v.57h-4.74v-.57c1.16-.11,1.64-.35,1.8-1.43.12-.89.14-1.61.66-8.91.08-1-.12-1.38-1.88-1.54v-.56h3.48l4.42,10.14L398,111.68h3.5v.56c-1.72.2-1.94.38-1.9,1.78l.08,7.68c.08,2.15.14,2.24,1.9,2.42v.57Z" transform="translate(0 0)"/><path id="path92" class="cls-1" d="M13.07,114.82a7.6,7.6,0,0,0-.64-1.66c-.32-.54-.52-.68-1.62-.68h-2v9.74c0,1.56.16,1.79,2.06,1.9v.57H5.05v-.57c1.86-.11,2-.31,2-1.9v-9.74H5.25c-1.1,0-1.42.12-1.76.72a9.49,9.49,0,0,0-.66,1.62h-.6c.12-1.22.24-2.48.3-3.6H3c.3.48.52.46,1.08.46H12a1,1,0,0,0,1-.46h.48c0,.94.08,2.38.18,3.54Z" transform="translate(0 0)"/><path id="path94" class="cls-1" d="M24,124.69v-.57c1.3-.15,1.46-.35,1.18-1.12s-.66-1.78-1.08-3H19.73c-.32.9-.62,1.68-.9,2.5-.44,1.31-.16,1.47,1.48,1.66v.57H15.69v-.57c1.26-.15,1.58-.3,2.28-2.1l4.14-10.5.64-.12c1.26,3.42,2.64,7.2,3.9,10.66.64,1.75.82,1.91,2.24,2.06v.57ZM22,114c-.64,1.72-1.32,3.54-1.92,5.12h3.74Z" transform="translate(0 0)"/><path id="path96" class="cls-1" d="M42.73,121.36c-.12.62-.72,2.7-.92,3.33h-9.3v-.57c1.82-.18,2-.27,2-2V114.2c0-1.7-.2-1.8-1.8-2v-.56h5.36v.56c-1.6.16-1.82.24-1.82,2v8.14c0,1.22.16,1.51,1.3,1.52h1.58c1,0,1.32-.12,1.78-.62a6.85,6.85,0,0,0,1.22-2.07Z" transform="translate(0 0)"/><path id="path98" class="cls-1" d="M57.09,121.36c-.12.62-.72,2.7-.92,3.33h-9.3v-.57c1.82-.18,2-.27,2-2V114.2c0-1.7-.2-1.8-1.8-2v-.56h5.36v.56c-1.6.16-1.82.24-1.82,2v8.14c0,1.22.16,1.51,1.3,1.52h1.58c1,0,1.32-.12,1.78-.62a6.85,6.85,0,0,0,1.22-2.07Z" transform="translate(0 0)"/><path id="path100" class="cls-1" d="M61.41,124.69v-.57c1.64-.18,1.8-.26,1.8-2v-7.94c0-1.72-.16-1.8-1.8-2v-.56h5.36v.56c-1.66.18-1.82.26-1.82,2v7.94c0,1.73.16,1.78,1.82,2v.57Z" transform="translate(0 0)"/><path id="path102" class="cls-1" d="M85.61,112.24c-1.28.14-1.7.34-1.76,1.26,0,.64-.06,1.48-.06,3.34v8H83L74.47,114.4v5c0,1.8.06,2.7.1,3.29,0,1,.54,1.32,2,1.43v.57H71.69v-.57c1.24-.1,1.72-.39,1.8-1.38.06-.64.1-1.54.1-3.36v-5.1a1.76,1.76,0,0,0-.4-1.32c-.38-.5-.8-.62-1.78-.72v-.56h3l8.48,10.06v-4.9a24.55,24.55,0,0,0-.1-3.32c-.06-.9-.52-1.18-2.12-1.28v-.56h4.94Z" transform="translate(0 0)"/><path id="path104" class="cls-1" d="M104,112.24c-1.28.14-1.7.34-1.76,1.26,0,.64-.06,1.48-.06,3.34v8h-.76L92.89,114.4v5c0,1.8.06,2.7.1,3.29,0,1,.54,1.32,2,1.43v.57H90.11v-.57c1.24-.1,1.72-.39,1.8-1.38.06-.64.1-1.54.1-3.36v-5.1a1.76,1.76,0,0,0-.4-1.32c-.38-.5-.8-.62-1.78-.72v-.56h3l8.48,10.06v-4.9a24.55,24.55,0,0,0-.1-3.32c-.06-.9-.52-1.18-2.12-1.28v-.56H104Z" transform="translate(0 0)"/><path id="path106" class="cls-1" d="M115.47,124.69v-.57c1.3-.15,1.46-.35,1.18-1.12s-.66-1.78-1.08-3h-4.32c-.32.9-.62,1.68-.9,2.5-.44,1.31-.16,1.47,1.48,1.66v.57h-4.62v-.57c1.26-.15,1.58-.3,2.28-2.1l4.14-10.5.64-.12c1.26,3.42,2.64,7.2,3.9,10.66.64,1.75.82,1.91,2.24,2.06v.57Zm-2-10.67c-.64,1.72-1.32,3.54-1.92,5.12h3.74Z" transform="translate(0 0)"/><polygon id="polygon108" class="cls-2" points="9.16 128.28 9.16 139.77 114.33 128.28 9.16 128.28"/><polygon id="polygon110" class="cls-2" points="29.71 143.51 29.71 150.94 114.33 128.31 114.33 128.28 29.71 143.51"/><path id="path112" class="cls-3" d="M65.22,98.56V15.49c8.21,4.2,20.7,9.07,35.71,8.47,28.34-1.12,37-20.58,68.53-22.63C178.38.75,197.94-.53,210,12.74c9.71,10.69,9.44,25.2,9.06,30.62" transform="translate(0 0)"/><path id="path114" class="cls-3" d="M65.3,140.26v59.21a47.53,47.53,0,0,0,15.77,17c13.82,8.77,29,7.4,41.46,6.27,9.73-.88,17.63-1.59,27.11-5.86,10.58-4.78,18.56-10.73,32.4-11.79a16,16,0,0,1,4.2.26c15.49,2.78,21.77,19.92,28.34,17.37,2.09-.81,4.56-4,4.91-17.4" transform="translate(0 0)"/><polygon id="polygon116" class="cls-2" points="0 107 109.53 107 0 84.12 0 107"/><polygon id="polygon120" class="cls-2" points="400.37 168.99 400.37 130.5 201.6 130.5 400.37 168.99"/><path id="path122" class="cls-6" d="M354,151.79v-.56c2.22-.14,2.34-.24,2.34-1.74V141.8c0-1-.14-1.06-1-1.14l-1-.1v-.5a16.68,16.68,0,0,0,3.66-1v10.41c0,1.52.12,1.6,2.36,1.74v.56Z" transform="translate(0 0)"/><path id="path124" class="cls-6" d="M368.78,146l-1.34.69a2.51,2.51,0,0,1-1.2.3,3.56,3.56,0,0,1-3.6-3.54,1.47,1.47,0,0,1,0-.21,4.11,4.11,0,0,1,4.1-4.14h0c2.58,0,4,2.28,4,5a8,8,0,0,1-5.06,7.49,9.3,9.3,0,0,1-2.38.52l-.16-.58A6.77,6.77,0,0,0,368.78,146Zm-2.28-6.2c-1.56,0-2.1,1.48-2.1,2.88,0,1.77,1,3.23,2.66,3.23a3,3,0,0,0,1.8-.58,11.38,11.38,0,0,0,.08-1.31c0-1.8-.5-4.24-2.44-4.24Z" transform="translate(0 0)"/><path id="path126" class="cls-6" d="M379.74,139.32l.12.16-.52,1.32h-4.6c-.18,1.1-.44,2.66-.62,3.64a9.16,9.16,0,0,1,2.36-.58,3.49,3.49,0,0,1,3.75,3.21,1.34,1.34,0,0,1,0,.2,4.24,4.24,0,0,1-1.72,3.36A6.07,6.07,0,0,1,375,152a3,3,0,0,1-2.08-.78c-.28-.26-.36-.42-.32-.68a1,1,0,0,1,.42-.68.43.43,0,0,1,.56,0,3.49,3.49,0,0,0,2.52,1.1c1.68,0,2.48-1.44,2.48-2.94,0-1.76-1.06-3-3.28-3a5.71,5.71,0,0,0-2,.37l-.06-.08c.3-1.57.74-4.39,1-6Z" transform="translate(0 0)"/><path id="path128" class="cls-6" d="M385.42,144.24a2.84,2.84,0,0,1,1.28-.34,3.56,3.56,0,0,1,3.58,3.54v.17a4.22,4.22,0,0,1-4,4.42h-.11c-2.36,0-4.16-1.94-4.16-5a8.15,8.15,0,0,1,5.54-7.54,17.6,17.6,0,0,1,2.26-.52l.12.66a11.73,11.73,0,0,0-2.18.68,6.34,6.34,0,0,0-3.66,4.63Zm.48.81a4.14,4.14,0,0,0-1.94.55,6.29,6.29,0,0,0-.12,1.37c0,2.5.94,4.34,2.64,4.34s2-1.64,2-3c0-1.64-.76-3.26-2.58-3.26Z" transform="translate(0 0)"/><polygon class="cls-2" points="422.61 80.49 422.61 61.1 201.49 105.96 422.61 80.49"/><polygon class="cls-2" points="201.49 105.96 418.26 105.96 418.26 91.24 201.49 105.96"/></svg>