<?xml version="1.0" encoding="utf-8"?>
<!-- Generator: Adobe Illustrator 25.0.0, SVG Export Plug-In . SVG Version: 6.00 Build 0)  -->
<svg version="1.1" id="Слой_1" xmlns="http://www.w3.org/2000/svg" xmlns:xlink="http://www.w3.org/1999/xlink" x="0px" y="0px"
	 viewBox="0 0 447.4 212.5" style="enable-background:new 0 0 447.4 212.5;" xml:space="preserve">
<style type="text/css">
	.st0{fill:none;stroke:#E67E42;stroke-width:2;stroke-miterlimit:10;}
	.st1{fill:#293956;}
	.st2{fill:none;stroke:#FFFFFF;stroke-width:2;stroke-miterlimit:10;}
	.st3{fill:#FFFFFF;}
	.st4{fill:#E67E42;}
	.st5{fill:#E67E42;stroke:#E67E42;stroke-miterlimit:10;}
	.st6{fill:none;}
	.st7{font-family:'FrankRuhlHofshi-Regular';}
	.st8{font-size:16px;}
	.st9{letter-spacing:2;}
</style>
<g>
	<path class="st0" d="M299.8,30.6C270.4,1.6,254-1.2,244.2,2.1c-1,0.3-1.2,0.4-12.6,6.7C213,19,203.6,24.1,200.4,24.9
		c-7.3,1.8-20.9,1.5-43-19c0,64.3,0,128.5,0,192.8c22.1,13.3,38.4,13.9,49.2,12.1c21.2-3.6,31-18.6,50.2-16.6
		c15.6,1.6,20.9,17.6,27.8,15c4.3-1.6,8.3-9.2,6.3-37.1"/>
	<g>
		<ellipse class="st1" cx="291.6" cy="104.8" rx="131.2" ry="81"/>
		<ellipse class="st2" cx="291.6" cy="104.8" rx="85.9" ry="81"/>
		<line class="st2" x1="183" y1="58.5" x2="400.3" y2="58.5"/>
		<line class="st2" x1="182.9" y1="150.8" x2="400.2" y2="150.8"/>
		<line class="st2" x1="291.6" y1="185.8" x2="291.6" y2="23.8"/>
	</g>
</g>
<g>
	<rect x="210.5" y="76.9" class="st3" width="20.1" height="39.7"/>
	<g>
		<g>
			<g>
				<line class="st0" x1="204" y1="150.9" x2="237.2" y2="150.9"/>
				<path class="st4" d="M232.3,184.3c1,0,2,0,3,0.1v-33.5H206v45h3.4C212.2,189.3,221.4,184.3,232.3,184.3z"/>
			</g>
			<rect x="209.2" y="117.7" class="st4" width="22.8" height="32.8"/>
			<rect x="208.1" y="117.7" class="st5" width="25.1" height="0.2"/>
			<rect x="206.9" y="117" class="st5" width="27.3" height="0.2"/>
		</g>
		<g>
			<path class="st5" d="M220.6,63.4c-6.3,0-11.4,5.5-11.4,12.2H232C232,68.9,226.9,63.4,220.6,63.4z"/>
			<line class="st0" x1="207.8" y1="76" x2="233.4" y2="76"/>
		</g>
	</g>
	<ellipse class="st4" cx="220.6" cy="61.6" rx="1.3" ry="1.4"/>
</g>
<g>
	<g>
		<polygon class="st3" points="226.3,95.6 226.3,102.9 435.8,159.9 435.8,51.7 		"/>
	</g>
</g>
<polygon class="st4" points="255.3,90.2 444,90.2 444,64.2 "/>
<rect x="259.5" y="95.5" class="st6" width="188" height="13.3"/>
<text transform="matrix(1 0 0 1 259.461 106.5253)" class="st4 st7 st8 st9">PAE GÜMNAASIUM</text>
<g>
	<g>
		<polygon class="st3" points="5.2,51.7 5.2,159.9 214.8,102.9 214.8,95.6 		"/>
	</g>
</g>
<rect x="91.5" y="95.5" class="st6" width="92.7" height="13.3"/>
<text transform="matrix(1 0 0 1 91.4771 106.5252)" class="st1 st7 st8 st9">TALLINN</text>
<polygon class="st4" points="182.1,110.5 55,110.5 55,133.8 "/>
<polygon class="st4" points="189.5,91.5 70.1,91.5 70.1,80.3 "/>
<polygon class="st4" points="189.5,91.5 107.7,75 110,63.5 "/>
<polygon class="st4" points="256.4,110.5 428.4,110.5 428.4,133.8 "/>
<rect x="391.6" y="114.5" class="st6" width="34.4" height="13.3"/>
<text transform="matrix(1 0 0 1 391.5864 125.5465)" class="st3 st7 st8">1956</text>
</svg>
